<mxfile host="app.diagrams.net" modified="2023-02-15T14:47:58.862Z" agent="5.0 (X11; Linux x86_64) AppleWebKit/537.36 (KHTML, like Gecko) Chrome/110.0.0.0 Safari/537.36" etag="qTdbrYkOABunnROS8h3C" version="20.8.20" type="github">
  <diagram name="Page-1" id="1KevMGaUwc12stQSihPz">
    <mxGraphModel dx="1434" dy="676" grid="1" gridSize="10" guides="1" tooltips="1" connect="1" arrows="1" fold="1" page="1" pageScale="1" pageWidth="850" pageHeight="1100" math="0" shadow="0">
      <root>
        <mxCell id="0" />
        <mxCell id="1" parent="0" />
        <mxCell id="AbDWLXvCetcpgCDr8WIA-4" value="" style="rounded=0;whiteSpace=wrap;html=1;fillColor=#dae8fc;strokeColor=#6c8ebf;" parent="1" vertex="1">
          <mxGeometry width="300" height="1520" as="geometry" />
        </mxCell>
        <mxCell id="7jnl_gE7uze0uzX-0y81-2" value="" style="shape=ext;double=1;rounded=0;whiteSpace=wrap;html=1;" vertex="1" parent="1">
          <mxGeometry x="10" y="10" width="280" height="240" as="geometry" />
        </mxCell>
        <mxCell id="7jnl_gE7uze0uzX-0y81-3" value="" style="endArrow=none;html=1;rounded=0;entryX=0.979;entryY=0.008;entryDx=0;entryDy=0;entryPerimeter=0;" edge="1" parent="1" target="7jnl_gE7uze0uzX-0y81-2">
          <mxGeometry width="50" height="50" relative="1" as="geometry">
            <mxPoint x="10" y="250" as="sourcePoint" />
            <mxPoint x="690" y="260" as="targetPoint" />
            <Array as="points">
              <mxPoint x="10" y="250" />
            </Array>
          </mxGeometry>
        </mxCell>
        <mxCell id="7jnl_gE7uze0uzX-0y81-4" value="" style="endArrow=none;html=1;rounded=0;entryX=0;entryY=0;entryDx=0;entryDy=0;exitX=1;exitY=1;exitDx=0;exitDy=0;" edge="1" parent="1" source="7jnl_gE7uze0uzX-0y81-2" target="7jnl_gE7uze0uzX-0y81-2">
          <mxGeometry width="50" height="50" relative="1" as="geometry">
            <mxPoint x="660" y="250" as="sourcePoint" />
            <mxPoint x="710" y="200" as="targetPoint" />
          </mxGeometry>
        </mxCell>
        <mxCell id="7jnl_gE7uze0uzX-0y81-11" value="" style="whiteSpace=wrap;html=1;aspect=fixed;" vertex="1" parent="1">
          <mxGeometry x="10" y="430" width="220" height="220" as="geometry" />
        </mxCell>
        <mxCell id="7jnl_gE7uze0uzX-0y81-5" value="" style="line;strokeWidth=2;html=1;" vertex="1" parent="1">
          <mxGeometry x="20" y="550" width="160" height="10" as="geometry" />
        </mxCell>
        <mxCell id="7jnl_gE7uze0uzX-0y81-6" value="" style="line;strokeWidth=2;html=1;" vertex="1" parent="1">
          <mxGeometry x="20" y="520" width="160" height="10" as="geometry" />
        </mxCell>
        <mxCell id="7jnl_gE7uze0uzX-0y81-8" value="H2 - Compétences pro" style="rounded=0;whiteSpace=wrap;html=1;" vertex="1" parent="1">
          <mxGeometry x="310" y="10" width="530" height="60" as="geometry" />
        </mxCell>
        <mxCell id="7jnl_gE7uze0uzX-0y81-9" value="H1 - Emploi" style="rounded=0;whiteSpace=wrap;html=1;" vertex="1" parent="1">
          <mxGeometry x="10" y="260" width="280" height="60" as="geometry" />
        </mxCell>
        <mxCell id="7jnl_gE7uze0uzX-0y81-10" value="H2 - Nom" style="rounded=0;whiteSpace=wrap;html=1;" vertex="1" parent="1">
          <mxGeometry x="10" y="370" width="280" height="40" as="geometry" />
        </mxCell>
        <mxCell id="7jnl_gE7uze0uzX-0y81-12" value="" style="line;strokeWidth=2;html=1;" vertex="1" parent="1">
          <mxGeometry x="20" y="460" width="160" height="10" as="geometry" />
        </mxCell>
        <mxCell id="7jnl_gE7uze0uzX-0y81-13" value="" style="line;strokeWidth=2;html=1;" vertex="1" parent="1">
          <mxGeometry x="20" y="490" width="160" height="10" as="geometry" />
        </mxCell>
        <mxCell id="7jnl_gE7uze0uzX-0y81-14" value="H2 - Expériences professionnelles" style="rounded=0;whiteSpace=wrap;html=1;" vertex="1" parent="1">
          <mxGeometry x="310" y="420" width="530" height="60" as="geometry" />
        </mxCell>
        <mxCell id="7jnl_gE7uze0uzX-0y81-15" value="H2 - Formations" style="rounded=0;whiteSpace=wrap;html=1;" vertex="1" parent="1">
          <mxGeometry x="310" y="830" width="530" height="60" as="geometry" />
        </mxCell>
        <mxCell id="7jnl_gE7uze0uzX-0y81-18" value="" style="line;strokeWidth=2;html=1;" vertex="1" parent="1">
          <mxGeometry x="20" y="580" width="160" height="10" as="geometry" />
        </mxCell>
        <mxCell id="7jnl_gE7uze0uzX-0y81-20" value="" style="line;strokeWidth=2;html=1;" vertex="1" parent="1">
          <mxGeometry x="20" y="610" width="160" height="10" as="geometry" />
        </mxCell>
        <mxCell id="7jnl_gE7uze0uzX-0y81-21" style="edgeStyle=orthogonalEdgeStyle;rounded=0;orthogonalLoop=1;jettySize=auto;html=1;exitX=0.5;exitY=1;exitDx=0;exitDy=0;" edge="1" parent="1" source="7jnl_gE7uze0uzX-0y81-11" target="7jnl_gE7uze0uzX-0y81-11">
          <mxGeometry relative="1" as="geometry" />
        </mxCell>
        <mxCell id="7jnl_gE7uze0uzX-0y81-22" value="H2 - Profil" style="rounded=0;whiteSpace=wrap;html=1;" vertex="1" parent="1">
          <mxGeometry x="10" y="710" width="280" height="40" as="geometry" />
        </mxCell>
        <mxCell id="7jnl_gE7uze0uzX-0y81-23" value="" style="whiteSpace=wrap;html=1;aspect=fixed;" vertex="1" parent="1">
          <mxGeometry x="10" y="770" width="220" height="220" as="geometry" />
        </mxCell>
        <mxCell id="7jnl_gE7uze0uzX-0y81-24" value="" style="line;strokeWidth=2;html=1;" vertex="1" parent="1">
          <mxGeometry x="20" y="800" width="160" height="10" as="geometry" />
        </mxCell>
        <mxCell id="7jnl_gE7uze0uzX-0y81-25" value="" style="line;strokeWidth=2;html=1;" vertex="1" parent="1">
          <mxGeometry x="20" y="830" width="160" height="10" as="geometry" />
        </mxCell>
        <mxCell id="7jnl_gE7uze0uzX-0y81-26" value="" style="line;strokeWidth=2;html=1;" vertex="1" parent="1">
          <mxGeometry x="20" y="860" width="160" height="10" as="geometry" />
        </mxCell>
        <mxCell id="7jnl_gE7uze0uzX-0y81-27" value="" style="line;strokeWidth=2;html=1;" vertex="1" parent="1">
          <mxGeometry x="20" y="890" width="160" height="10" as="geometry" />
        </mxCell>
        <mxCell id="7jnl_gE7uze0uzX-0y81-28" value="" style="line;strokeWidth=2;html=1;" vertex="1" parent="1">
          <mxGeometry x="20" y="920" width="160" height="10" as="geometry" />
        </mxCell>
        <mxCell id="7jnl_gE7uze0uzX-0y81-29" value="" style="line;strokeWidth=2;html=1;" vertex="1" parent="1">
          <mxGeometry x="20" y="950" width="160" height="10" as="geometry" />
        </mxCell>
        <mxCell id="7jnl_gE7uze0uzX-0y81-30" value="H2 - Langues" style="rounded=0;whiteSpace=wrap;html=1;" vertex="1" parent="1">
          <mxGeometry x="10" y="1060" width="280" height="40" as="geometry" />
        </mxCell>
        <mxCell id="7jnl_gE7uze0uzX-0y81-31" value="" style="rounded=0;whiteSpace=wrap;html=1;" vertex="1" parent="1">
          <mxGeometry x="10" y="1120" width="230" height="130" as="geometry" />
        </mxCell>
        <mxCell id="7jnl_gE7uze0uzX-0y81-32" value="" style="line;strokeWidth=2;html=1;" vertex="1" parent="1">
          <mxGeometry x="20" y="1150" width="160" height="10" as="geometry" />
        </mxCell>
        <mxCell id="7jnl_gE7uze0uzX-0y81-33" value="" style="line;strokeWidth=2;html=1;" vertex="1" parent="1">
          <mxGeometry x="20" y="1180" width="160" height="10" as="geometry" />
        </mxCell>
        <mxCell id="7jnl_gE7uze0uzX-0y81-34" value="" style="line;strokeWidth=2;html=1;" vertex="1" parent="1">
          <mxGeometry x="20" y="1210" width="160" height="10" as="geometry" />
        </mxCell>
        <mxCell id="7jnl_gE7uze0uzX-0y81-35" value="H2 - Loisirs" style="rounded=0;whiteSpace=wrap;html=1;" vertex="1" parent="1">
          <mxGeometry x="10" y="1310" width="280" height="40" as="geometry" />
        </mxCell>
        <mxCell id="7jnl_gE7uze0uzX-0y81-36" value="" style="rounded=0;whiteSpace=wrap;html=1;" vertex="1" parent="1">
          <mxGeometry x="10" y="1370" width="230" height="110" as="geometry" />
        </mxCell>
        <mxCell id="7jnl_gE7uze0uzX-0y81-37" value="" style="line;strokeWidth=2;html=1;" vertex="1" parent="1">
          <mxGeometry x="20" y="1400" width="160" height="10" as="geometry" />
        </mxCell>
        <mxCell id="7jnl_gE7uze0uzX-0y81-38" value="" style="line;strokeWidth=2;html=1;" vertex="1" parent="1">
          <mxGeometry x="20" y="1430" width="160" height="10" as="geometry" />
        </mxCell>
      </root>
    </mxGraphModel>
  </diagram>
</mxfile>
